# xmcd
#
# Track frame offsets:
#	150
#	10263
#	23275
#	34468
#	44138
#	54210
#	64138
#	74415
#	86925
#	100430
#	109913
#	120650
#
# Disc length: 1724 seconds
#
# Revision: 1
# Processed by: cddbd v1.5.1PL0 Copyright (c) Steve Scherf et al.
# Submitted via: audiograbber 1.80
#
DISCID=a706ba0c
DTITLE=Alpensound - ...legt los
DYEAR=1900
DGENRE=
TTITLE0=Wir sind Eure Freunde
TTITLE1=Der Wecker schreit laut
TTITLE2=Alpensound-Polka
TTITLE3=Es ist wunderschön
TTITLE4=Hey Dirndal
TTITLE5=Florida-Express
TTITLE6=Aber leider bist Du weider
TTITLE7=Sitz Di her zu mir
TTITLE8=Heimkehr
TTITLE9=So san mir
TTITLE10=Schneeflocken
TTITLE11=Nudlsuppn
EXTD=
EXTT0=
EXTT1=
EXTT2=
EXTT3=
EXTT4=
EXTT5=
EXTT6=
EXTT7=
EXTT8=
EXTT9=
EXTT10=
EXTT11=
PLAYORDER=
